<?xml version="1.0" encoding="UTF-8"?><svg id="Layer_2" xmlns="http://www.w3.org/2000/svg" viewBox="0 0 270.68 331.13"><defs><style>.cls-1{fill:#395fd0;}.cls-1,.cls-2,.cls-3,.cls-4,.cls-5{stroke-width:0px;}.cls-2{fill:#1b4f4a;}.cls-3{fill:#a9eff6;}.cls-4{fill:#a5ebf2;}.cls-5{fill:#fff;}</style></defs><g id="Layer_1-2"><rect class="cls-2" width="270.68" height="331.13" rx="16.47" ry="16.47"/><path class="cls-4" d="m108.72,290.26c2.38,0,3.54,1.37,3.54,3,0,1.18-.63,2.45-2.32,2.87l2.48,4.15h-1.96l-2.3-4h-1.25v4h-1.64v-10.01h3.46Zm0,1.34h-1.82v3.36h1.82c1.28,0,1.86-.71,1.86-1.7s-.58-1.66-1.86-1.66Z"/><path class="cls-4" d="m119.89,291.58h-3.89v2.94h3.46v1.34h-3.46v3.07h3.89v1.34h-5.53v-10.03h5.53v1.34Z"/><path class="cls-4" d="m127.94,298.22h-4.19l-.72,2.04h-1.71l3.59-10.03h1.9l3.59,10.03h-1.73l-.72-2.04Zm-2.09-5.99l-1.64,4.65h3.27l-1.63-4.65Z"/><path class="cls-4" d="m140.53,295.3c0,3.08-2.1,4.97-5.32,4.97h-3.27v-10.01h3.27c3.21,0,5.32,1.94,5.32,5.04Zm-5.32,3.63c2.36,0,3.63-1.35,3.63-3.63s-1.27-3.7-3.63-3.7h-1.63v7.33h1.63Z"/><path class="cls-4" d="m150.47,300.37c-2.82,0-5.11-2.12-5.11-5.13s2.29-5.11,5.11-5.11,5.11,2.12,5.11,5.11-2.26,5.13-5.11,5.13Zm0-1.43c1.99,0,3.43-1.44,3.43-3.7s-1.44-3.67-3.43-3.67-3.43,1.41-3.43,3.67,1.44,3.7,3.43,3.7Z"/><path class="cls-4" d="m165.42,290.24v10.03h-1.64l-4.94-7.48v7.48h-1.64v-10.03h1.64l4.94,7.46v-7.46h1.64Z"/><path class="cls-5" d="m39.46,115.97c3.71,0,6.73,1.99,7.86,5.41h-3.86c-.79-1.6-2.23-2.4-4.02-2.4-2.92,0-5.01,2.13-5.01,5.53s2.08,5.53,5.01,5.53c1.8,0,3.23-.79,4.02-2.42h3.86c-1.13,3.45-4.14,5.41-7.86,5.41-4.81,0-8.48-3.52-8.48-8.53s3.67-8.55,8.48-8.55Z"/><path class="cls-5" d="m49.84,116.09c0-1.1.86-1.96,2.06-1.96s2.06.86,2.06,1.96-.89,1.96-2.06,1.96-2.06-.86-2.06-1.96Zm.36,3.55h3.35v13.27h-3.35v-13.27Z"/><path class="cls-5" d="m57.38,122.39h-1.58v-2.75h1.58v-3.28h3.38v3.28h2.97v2.75h-2.97v6.42c0,.89.36,1.27,1.41,1.27h1.56v2.83h-2.11c-2.54,0-4.24-1.08-4.24-4.12v-6.4Z"/><path class="cls-5" d="m75.28,119.63h3.57l-8.22,19.55h-3.57l2.88-6.61-5.32-12.94h3.76l3.43,9.27,3.47-9.27Z"/><path class="cls-5" d="m92.24,133.12c-3.83,0-6.73-2.68-6.73-6.85s2.99-6.85,6.83-6.85,6.83,2.66,6.83,6.85-3.07,6.85-6.92,6.85Zm0-2.92c1.77,0,3.47-1.29,3.47-3.93s-1.65-3.93-3.43-3.93-3.38,1.27-3.38,3.93,1.53,3.93,3.33,3.93Z"/><path class="cls-5" d="m101.99,122.39h-1.51v-2.75h1.51v-.67c0-3.26,1.84-4.77,5.58-4.67v2.83c-1.63-.05-2.18.48-2.18,1.96v.55h2.32v2.75h-2.32v10.52h-3.4v-10.52Z"/><path class="cls-5" d="m131.09,121.21h-3.86c-.77-1.41-2.16-2.16-3.93-2.16-3,0-5.08,2.13-5.08,5.46s2.11,5.51,5.22,5.51c2.59,0,4.24-1.49,4.74-3.86h-5.75v-2.56h9.05v2.92c-.67,3.4-3.71,6.52-8.17,6.52-4.86,0-8.55-3.52-8.55-8.53s3.69-8.55,8.53-8.55c3.74,0,6.71,1.89,7.79,5.25Z"/><path class="cls-5" d="m137.35,132.9h-3.35v-13.27h3.35v2.06c.84-1.37,2.23-2.25,4.07-2.25v3.52h-.89c-1.99,0-3.19.77-3.19,3.33v6.61Z"/><path class="cls-5" d="m149.47,133.12c-3.86,0-6.66-2.68-6.66-6.85s2.73-6.85,6.66-6.85,6.54,2.61,6.54,6.56c0,.43-.02.86-.1,1.29h-9.7c.17,1.96,1.51,3.07,3.19,3.07,1.44,0,2.23-.72,2.66-1.6h3.62c-.72,2.44-2.92,4.38-6.21,4.38Zm-3.23-8.1h6.3c-.05-1.75-1.44-2.85-3.16-2.85-1.61,0-2.88,1.03-3.14,2.85Z"/><path class="cls-5" d="m164.25,133.12c-3.86,0-6.66-2.68-6.66-6.85s2.73-6.85,6.66-6.85,6.54,2.61,6.54,6.56c0,.43-.02.86-.1,1.29h-9.7c.17,1.96,1.51,3.07,3.19,3.07,1.44,0,2.23-.72,2.66-1.6h3.62c-.72,2.44-2.92,4.38-6.21,4.38Zm-3.23-8.1h6.3c-.05-1.75-1.44-2.85-3.16-2.85-1.61,0-2.88,1.03-3.14,2.85Z"/><path class="cls-5" d="m182.53,125.57c0-2.13-1.17-3.28-2.95-3.28s-2.99,1.15-2.99,3.28v7.33h-3.35v-13.27h3.35v1.65c.86-1.13,2.3-1.84,4-1.84,3.09,0,5.29,2.01,5.29,5.68v7.79h-3.35v-7.33Z"/><path class="cls-5" d="m191.25,119.63l3.35,10.18,3.35-10.18h3.57l-4.91,13.27h-4.07l-4.89-13.27h3.59Z"/><path class="cls-5" d="m203.06,116.09c0-1.1.86-1.96,2.06-1.96s2.06.86,2.06,1.96-.89,1.96-2.06,1.96-2.06-.86-2.06-1.96Zm.36,3.55h3.35v13.27h-3.35v-13.27Z"/><path class="cls-5" d="m210.08,115.18h3.35v17.73h-3.35v-17.73Z"/><path class="cls-5" d="m216.74,115.18h3.35v17.73h-3.35v-17.73Z"/><path class="cls-5" d="m229.19,133.12c-3.86,0-6.66-2.68-6.66-6.85s2.73-6.85,6.66-6.85,6.54,2.61,6.54,6.56c0,.43-.02.86-.1,1.29h-9.7c.17,1.96,1.51,3.07,3.19,3.07,1.44,0,2.23-.72,2.66-1.6h3.62c-.72,2.44-2.92,4.38-6.21,4.38Zm-3.23-8.1h6.3c-.05-1.75-1.44-2.85-3.16-2.85-1.61,0-2.88,1.03-3.14,2.85Z"/><path class="cls-5" d="m34.44,148.17c2.13,0,3.59,1.01,4.38,2.11v-1.89h3.38v13.27h-3.38v-1.94c-.79,1.15-2.3,2.16-4.41,2.16-3.35,0-6.04-2.75-6.04-6.9s2.68-6.8,6.06-6.8Zm.86,2.95c-1.8,0-3.5,1.34-3.5,3.86s1.7,3.95,3.5,3.95,3.52-1.39,3.52-3.9-1.68-3.91-3.52-3.91Z"/><path class="cls-5" d="m51.19,148.17c3.31,0,5.53,1.72,6.25,4.7h-3.62c-.38-1.13-1.27-1.84-2.66-1.84-1.87,0-3.11,1.41-3.11,4s1.25,3.98,3.11,3.98c1.39,0,2.25-.62,2.66-1.82h3.62c-.72,2.83-2.95,4.7-6.25,4.7-3.83,0-6.56-2.68-6.56-6.85s2.73-6.85,6.56-6.85Z"/><path class="cls-5" d="m65.61,148.17c3.31,0,5.53,1.72,6.25,4.7h-3.62c-.38-1.13-1.27-1.84-2.66-1.84-1.87,0-3.12,1.41-3.12,4s1.25,3.98,3.12,3.98c1.39,0,2.25-.62,2.66-1.82h3.62c-.72,2.83-2.95,4.7-6.25,4.7-3.83,0-6.56-2.68-6.56-6.85s2.73-6.85,6.56-6.85Z"/><path class="cls-5" d="m80.22,161.87c-3.83,0-6.73-2.68-6.73-6.85s2.99-6.85,6.83-6.85,6.83,2.66,6.83,6.85-3.07,6.85-6.92,6.85Zm0-2.92c1.77,0,3.47-1.29,3.47-3.93s-1.65-3.93-3.43-3.93-3.38,1.27-3.38,3.93,1.53,3.93,3.33,3.93Z"/><path class="cls-5" d="m102.14,161.65h-3.38v-1.68c-.84,1.13-2.3,1.84-3.95,1.84-3.09,0-5.32-2.01-5.32-5.65v-7.79h3.35v7.31c0,2.13,1.17,3.28,2.95,3.28s2.97-1.15,2.97-3.28v-7.31h3.38v13.27Z"/><path class="cls-5" d="m114.74,154.32c0-2.13-1.17-3.28-2.95-3.28s-2.99,1.15-2.99,3.28v7.33h-3.35v-13.27h3.35v1.65c.86-1.13,2.3-1.84,4-1.84,3.09,0,5.29,2.01,5.29,5.68v7.79h-3.35v-7.33Z"/><path class="cls-5" d="m126.99,148.17c3.31,0,5.53,1.72,6.25,4.7h-3.62c-.38-1.13-1.27-1.84-2.66-1.84-1.87,0-3.11,1.41-3.11,4s1.25,3.98,3.11,3.98c1.39,0,2.25-.62,2.66-1.82h3.62c-.72,2.83-2.95,4.7-6.25,4.7-3.83,0-6.56-2.68-6.56-6.85s2.73-6.85,6.56-6.85Z"/><path class="cls-5" d="m141.5,161.87c-3.86,0-6.66-2.68-6.66-6.85s2.73-6.85,6.66-6.85,6.54,2.61,6.54,6.56c0,.43-.02.86-.1,1.29h-9.7c.17,1.96,1.51,3.07,3.19,3.07,1.44,0,2.23-.72,2.66-1.6h3.62c-.72,2.44-2.92,4.38-6.21,4.38Zm-3.23-8.1h6.3c-.05-1.75-1.44-2.85-3.16-2.85-1.61,0-2.88,1.03-3.14,2.85Z"/><path class="cls-5" d="m155.57,161.87c-3.33,0-5.65-1.94-5.8-4.41h3.38c.12,1.01,1.05,1.77,2.4,1.77s2.04-.6,2.04-1.37c0-2.37-7.5-.86-7.5-5.73,0-2.2,1.96-3.98,5.25-3.98s5.15,1.75,5.34,4.38h-3.21c-.1-1.03-.91-1.72-2.23-1.72-1.25,0-1.89.5-1.89,1.27,0,2.42,7.35.91,7.45,5.77,0,2.28-1.99,4-5.22,4Z"/><path class="cls-5" d="m167.85,144.93h3.79l3.59,7.64,3.57-7.64h3.74l-5.65,10.9v5.82h-3.35v-5.82l-5.68-10.9Z"/><path class="cls-5" d="m190.37,161.87c-3.83,0-6.73-2.68-6.73-6.85s2.99-6.85,6.83-6.85,6.83,2.66,6.83,6.85-3.07,6.85-6.92,6.85Zm0-2.92c1.77,0,3.47-1.29,3.47-3.93s-1.65-3.93-3.43-3.93-3.38,1.27-3.38,3.93,1.53,3.93,3.33,3.93Z"/><path class="cls-5" d="m212.29,161.65h-3.38v-1.68c-.84,1.13-2.3,1.84-3.95,1.84-3.09,0-5.32-2.01-5.32-5.65v-7.79h3.35v7.31c0,2.13,1.17,3.28,2.95,3.28s2.97-1.15,2.97-3.28v-7.31h3.38v13.27Z"/><path class="cls-5" d="m216.13,151.14h-1.58v-2.75h1.58v-3.28h3.38v3.28h2.97v2.75h-2.97v6.42c0,.89.36,1.27,1.41,1.27h1.56v2.83h-2.11c-2.54,0-4.24-1.08-4.24-4.12v-6.4Z"/><path class="cls-5" d="m224.89,143.93h3.35v6.11c.86-1.13,2.35-1.84,4.12-1.84,3,0,5.17,2.01,5.17,5.68v7.79h-3.35v-7.33c0-2.13-1.17-3.28-2.95-3.28s-2.99,1.15-2.99,3.28v7.33h-3.35v-17.73Z"/><path class="cls-5" d="m34.35,182.06c0,5.05-3.47,8.34-8.82,8.34h-5.85v-16.72h5.85c5.34,0,8.82,3.31,8.82,8.38Zm-8.94,5.49c3.52,0,5.51-2.01,5.51-5.49s-1.99-5.56-5.51-5.56h-2.37v11.04h2.37Z"/><path class="cls-5" d="m42.66,190.62c-3.86,0-6.66-2.68-6.66-6.85s2.73-6.85,6.66-6.85,6.54,2.61,6.54,6.56c0,.43-.02.86-.1,1.29h-9.7c.17,1.96,1.51,3.07,3.19,3.07,1.44,0,2.23-.72,2.66-1.6h3.62c-.72,2.44-2.92,4.38-6.21,4.38Zm-3.23-8.1h6.3c-.05-1.75-1.44-2.85-3.16-2.85-1.61,0-2.88,1.03-3.14,2.85Z"/><path class="cls-5" d="m53.82,177.13l3.35,10.18,3.35-10.18h3.57l-4.91,13.27h-4.07l-4.89-13.27h3.59Z"/><path class="cls-5" d="m71.79,190.62c-3.86,0-6.66-2.68-6.66-6.85s2.73-6.85,6.66-6.85,6.54,2.61,6.54,6.56c0,.43-.02.86-.1,1.29h-9.7c.17,1.96,1.51,3.07,3.19,3.07,1.44,0,2.23-.72,2.66-1.6h3.62c-.72,2.44-2.92,4.38-6.21,4.38Zm-3.23-8.1h6.3c-.05-1.75-1.44-2.85-3.16-2.85-1.6,0-2.88,1.03-3.14,2.85Z"/><path class="cls-5" d="m80.77,172.67h3.35v17.73h-3.35v-17.73Z"/><path class="cls-5" d="m93.33,190.62c-3.83,0-6.73-2.68-6.73-6.85s2.99-6.85,6.83-6.85,6.83,2.66,6.83,6.85-3.07,6.85-6.92,6.85Zm0-2.92c1.77,0,3.47-1.29,3.47-3.93s-1.65-3.93-3.43-3.93-3.38,1.27-3.38,3.93,1.53,3.93,3.33,3.93Z"/><path class="cls-5" d="m110.46,176.91c3.4,0,6.06,2.66,6.06,6.8s-2.66,6.9-6.06,6.9c-2.08,0-3.57-1.03-4.38-2.11v8.22h-3.35v-19.6h3.35v1.92c.79-1.13,2.32-2.13,4.38-2.13Zm-.89,2.95c-1.8,0-3.5,1.39-3.5,3.91s1.7,3.9,3.5,3.9,3.52-1.44,3.52-3.95-1.7-3.86-3.52-3.86Z"/><path class="cls-5" d="m137.53,183.07c0-2.11-1.17-3.21-2.95-3.21s-2.97,1.1-2.97,3.21v7.33h-3.35v-7.33c0-2.11-1.17-3.21-2.95-3.21s-2.99,1.1-2.99,3.21v7.33h-3.35v-13.27h3.35v1.6c.84-1.1,2.25-1.8,3.91-1.8,2.06,0,3.76.89,4.67,2.54.86-1.51,2.61-2.54,4.55-2.54,3.19,0,5.44,2.01,5.44,5.68v7.79h-3.35v-7.33Z"/><path class="cls-5" d="m149.86,190.62c-3.86,0-6.66-2.68-6.66-6.85s2.73-6.85,6.66-6.85,6.54,2.61,6.54,6.56c0,.43-.02.86-.1,1.29h-9.7c.17,1.96,1.51,3.07,3.19,3.07,1.44,0,2.23-.72,2.66-1.6h3.62c-.72,2.44-2.92,4.38-6.21,4.38Zm-3.23-8.1h6.3c-.05-1.75-1.44-2.85-3.16-2.85-1.6,0-2.88,1.03-3.14,2.85Z"/><path class="cls-5" d="m168.14,183.07c0-2.13-1.17-3.28-2.95-3.28s-2.99,1.15-2.99,3.28v7.33h-3.35v-13.27h3.35v1.65c.86-1.13,2.3-1.84,4-1.84,3.09,0,5.29,2.01,5.29,5.68v7.79h-3.35v-7.33Z"/><path class="cls-5" d="m175.21,179.88h-1.58v-2.75h1.58v-3.28h3.38v3.28h2.97v2.75h-2.97v6.42c0,.89.36,1.27,1.41,1.27h1.56v2.83h-2.11c-2.54,0-4.24-1.08-4.24-4.12v-6.4Z"/><path class="cls-5" d="m189.68,173.68h10.33v2.71h-6.97v4.29h5.34v2.66h-5.34v7.07h-3.35v-16.72Z"/><path class="cls-5" d="m214.9,190.4h-3.38v-1.68c-.84,1.13-2.3,1.84-3.95,1.84-3.09,0-5.32-2.01-5.32-5.65v-7.79h3.35v7.31c0,2.13,1.17,3.28,2.95,3.28s2.97-1.15,2.97-3.28v-7.31h3.38v13.27Z"/><path class="cls-5" d="m227.51,183.07c0-2.13-1.17-3.28-2.95-3.28s-2.99,1.15-2.99,3.28v7.33h-3.35v-13.27h3.35v1.65c.86-1.13,2.3-1.84,4-1.84,3.09,0,5.29,2.01,5.29,5.68v7.79h-3.35v-7.33Z"/><path class="cls-5" d="m239.27,176.91c1.75,0,3.43.81,4.34,2.06v-6.3h3.4v17.73h-3.4v-1.96c-.79,1.22-2.28,2.18-4.36,2.18-3.38,0-6.06-2.75-6.06-6.9s2.68-6.8,6.08-6.8Zm.84,2.95c-1.8,0-3.5,1.34-3.5,3.86s1.7,3.95,3.5,3.95,3.52-1.39,3.52-3.9-1.68-3.91-3.52-3.91Z"/><path class="cls-5" d="m28.5,205.66c2.08,0,3.59.96,4.38,2.11v-1.89h3.38v13.37c0,3.59-2.2,6.44-6.56,6.44-3.74,0-6.35-1.87-6.68-4.91h3.33c.33,1.2,1.58,1.99,3.26,1.99,1.84,0,3.28-1.05,3.28-3.52v-2.06c-.79,1.15-2.3,2.18-4.38,2.18-3.38,0-6.06-2.75-6.06-6.9s2.68-6.8,6.06-6.8Zm.86,2.95c-1.8,0-3.5,1.34-3.5,3.86s1.7,3.95,3.5,3.95,3.52-1.39,3.52-3.9-1.68-3.91-3.52-3.91Z"/><path class="cls-5" d="m42.9,219.15h-3.35v-13.27h3.35v2.06c.84-1.37,2.23-2.25,4.07-2.25v3.52h-.89c-1.99,0-3.19.77-3.19,3.33v6.61Z"/><path class="cls-5" d="m54.42,205.66c2.13,0,3.59,1.01,4.38,2.11v-1.89h3.38v13.27h-3.38v-1.94c-.79,1.15-2.3,2.16-4.41,2.16-3.35,0-6.04-2.75-6.04-6.9s2.68-6.8,6.06-6.8Zm.86,2.95c-1.8,0-3.5,1.34-3.5,3.86s1.7,3.95,3.5,3.95,3.52-1.39,3.52-3.9-1.68-3.91-3.52-3.91Z"/><path class="cls-5" d="m74.76,211.82c0-2.13-1.17-3.28-2.95-3.28s-2.99,1.15-2.99,3.28v7.33h-3.35v-13.27h3.35v1.65c.86-1.13,2.3-1.84,4-1.84,3.09,0,5.29,2.01,5.29,5.68v7.79h-3.35v-7.33Z"/><path class="cls-5" d="m81.83,208.63h-1.58v-2.75h1.58v-3.28h3.38v3.28h2.97v2.75h-2.97v6.42c0,.89.36,1.27,1.41,1.27h1.56v2.83h-2.11c-2.54,0-4.24-1.08-4.24-4.12v-6.4Z"/><path class="cls-5" d="m102.19,219.36c-3.83,0-6.73-2.68-6.73-6.85s2.99-6.85,6.83-6.85,6.83,2.66,6.83,6.85-3.07,6.85-6.92,6.85Zm0-2.92c1.77,0,3.47-1.29,3.47-3.93s-1.65-3.93-3.43-3.93-3.38,1.27-3.38,3.93,1.53,3.93,3.33,3.93Z"/><path class="cls-5" d="m119.32,205.66c3.4,0,6.06,2.66,6.06,6.8s-2.66,6.9-6.06,6.9c-2.08,0-3.57-1.03-4.38-2.11v8.22h-3.35v-19.6h3.35v1.92c.79-1.13,2.32-2.13,4.38-2.13Zm-.89,2.95c-1.8,0-3.5,1.39-3.5,3.91s1.7,3.9,3.5,3.9,3.52-1.44,3.52-3.95-1.7-3.86-3.52-3.86Z"/><path class="cls-5" d="m135.56,205.66c3.4,0,6.06,2.66,6.06,6.8s-2.66,6.9-6.06,6.9c-2.08,0-3.57-1.03-4.38-2.11v8.22h-3.35v-19.6h3.35v1.92c.79-1.13,2.32-2.13,4.38-2.13Zm-.89,2.95c-1.8,0-3.5,1.39-3.5,3.91s1.7,3.9,3.5,3.9,3.52-1.44,3.52-3.95-1.7-3.86-3.52-3.86Z"/><path class="cls-5" d="m149.96,219.36c-3.83,0-6.73-2.68-6.73-6.85s2.99-6.85,6.83-6.85,6.83,2.66,6.83,6.85-3.07,6.85-6.92,6.85Zm0-2.92c1.77,0,3.47-1.29,3.47-3.93s-1.65-3.93-3.43-3.93-3.38,1.27-3.38,3.93,1.53,3.93,3.33,3.93Z"/><path class="cls-5" d="m162.7,219.15h-3.35v-13.27h3.35v2.06c.84-1.37,2.23-2.25,4.07-2.25v3.52h-.89c-1.99,0-3.19.77-3.19,3.33v6.61Z"/><path class="cls-5" d="m169.56,208.63h-1.58v-2.75h1.58v-3.28h3.38v3.28h2.97v2.75h-2.97v6.42c0,.89.36,1.27,1.41,1.27h1.56v2.83h-2.11c-2.54,0-4.24-1.08-4.24-4.12v-6.4Z"/><path class="cls-5" d="m190.85,219.15h-3.38v-1.68c-.84,1.13-2.3,1.84-3.95,1.84-3.09,0-5.32-2.01-5.32-5.65v-7.79h3.35v7.31c0,2.13,1.17,3.28,2.95,3.28s2.97-1.15,2.97-3.28v-7.31h3.38v13.27Z"/><path class="cls-5" d="m203.45,211.82c0-2.13-1.17-3.28-2.95-3.28s-2.99,1.15-2.99,3.28v7.33h-3.35v-13.27h3.35v1.65c.86-1.13,2.3-1.84,4-1.84,3.09,0,5.29,2.01,5.29,5.68v7.79h-3.35v-7.33Z"/><path class="cls-5" d="m209.63,202.33c0-1.1.86-1.96,2.06-1.96s2.06.86,2.06,1.96-.89,1.96-2.06,1.96-2.06-.86-2.06-1.96Zm.36,3.55h3.35v13.27h-3.35v-13.27Z"/><path class="cls-5" d="m217.18,208.63h-1.58v-2.75h1.58v-3.28h3.38v3.28h2.97v2.75h-2.97v6.42c0,.89.36,1.27,1.41,1.27h1.56v2.83h-2.11c-2.54,0-4.24-1.08-4.24-4.12v-6.4Z"/><path class="cls-5" d="m235.08,205.88h3.57l-8.22,19.55h-3.57l2.88-6.61-5.32-12.94h3.76l3.43,9.27,3.47-9.27Z"/><path class="cls-5" d="m241.93,219.32c-1.22,0-2.08-.86-2.08-1.96s.86-1.96,2.08-1.96,2.04.86,2.04,1.96-.86,1.96-2.04,1.96Z"/><circle class="cls-1" cx="134.84" cy="60.44" r="24.69"/><path class="cls-5" d="m147.02,52.93h-6.85c-.94-1.7-2.68-2.61-5-2.61-3.99,0-6.64,2.83-6.64,7.25,0,4.71,2.68,7.47,7.14,7.47,3.08,0,5.22-1.63,6.16-4.5h-7.87v-4.57h13.49v5.77c-1.31,4.39-5.55,8.77-12.26,8.77-7.61,0-12.98-5.33-12.98-12.94s5.33-12.98,12.94-12.98c6.09,0,10.51,3.12,11.86,8.34Z"/><rect class="cls-3" x="122.13" y="72.56" width="25.41" height="3.88"/></g></svg>